<?xml version="1.0" encoding="UTF-8" standalone="no"?>
<!DOCTYPE svg PUBLIC "-//W3C//DTD SVG 1.1//EN" "http://www.w3.org/Graphics/SVG/1.1/DTD/svg11.dtd">
<svg width="100%" height="100%" viewBox="0 0 3334 1000" version="1.1" xmlns="http://www.w3.org/2000/svg" xmlns:xlink="http://www.w3.org/1999/xlink" xml:space="preserve" xmlns:serif="http://www.serif.com/" style="fill-rule:evenodd;clip-rule:evenodd;stroke-linejoin:round;stroke-miterlimit:2;">
    <g transform="matrix(2.13812,0,0,2.13812,-712.463,-809.76)">
        <g id="New-logo" serif:id="New logo">
            <g>
                <g transform="matrix(400,0,0,400,385.588,656.936)">
                    <path d="M0.081,-0L0.081,-0.5L0.176,-0.5L0.181,-0.411C0.198,-0.444 0.221,-0.468 0.25,-0.485C0.279,-0.502 0.311,-0.51 0.345,-0.51C0.381,-0.51 0.414,-0.501 0.444,-0.485C0.473,-0.468 0.495,-0.442 0.509,-0.408C0.519,-0.431 0.533,-0.45 0.552,-0.465C0.57,-0.48 0.59,-0.491 0.613,-0.499C0.636,-0.506 0.658,-0.51 0.681,-0.51C0.713,-0.51 0.743,-0.503 0.77,-0.49C0.797,-0.477 0.818,-0.456 0.835,-0.429C0.852,-0.402 0.86,-0.367 0.86,-0.325L0.86,-0L0.752,-0L0.752,-0.307C0.752,-0.348 0.742,-0.377 0.723,-0.395C0.704,-0.413 0.68,-0.422 0.651,-0.422C0.628,-0.422 0.607,-0.416 0.588,-0.405C0.569,-0.394 0.553,-0.377 0.542,-0.355C0.531,-0.332 0.525,-0.305 0.525,-0.274L0.525,-0L0.417,-0L0.417,-0.307C0.417,-0.348 0.407,-0.377 0.388,-0.395C0.368,-0.413 0.344,-0.422 0.315,-0.422C0.296,-0.422 0.276,-0.417 0.257,-0.406C0.237,-0.395 0.221,-0.379 0.208,-0.356C0.195,-0.333 0.189,-0.304 0.189,-0.268L0.189,-0L0.081,-0Z" style="fill:rgb(245,246,246);fill-rule:nonzero;"/>
                </g>
                <g transform="matrix(400,0,0,400,760.388,656.936)">
                    <path d="M0.36,-0.322C0.36,-0.355 0.351,-0.38 0.334,-0.399C0.317,-0.418 0.293,-0.427 0.262,-0.427C0.233,-0.427 0.208,-0.42 0.188,-0.406C0.167,-0.392 0.152,-0.369 0.143,-0.338L0.053,-0.373C0.065,-0.414 0.089,-0.448 0.125,-0.472C0.161,-0.498 0.208,-0.51 0.267,-0.51C0.306,-0.51 0.341,-0.503 0.372,-0.491C0.402,-0.477 0.426,-0.458 0.443,-0.431C0.46,-0.404 0.468,-0.371 0.468,-0.332L0.468,-0.11C0.468,-0.083 0.48,-0.07 0.504,-0.07C0.509,-0.07 0.515,-0.07 0.521,-0.071C0.527,-0.073 0.532,-0.074 0.537,-0.075L0.531,-0.004C0.524,-0.001 0.516,0.002 0.506,0.004C0.497,0.007 0.486,0.008 0.473,0.008C0.453,0.008 0.435,0.004 0.418,-0.004C0.401,-0.011 0.388,-0.023 0.379,-0.039C0.37,-0.054 0.365,-0.074 0.365,-0.098L0.365,-0.109L0.383,-0.11C0.378,-0.083 0.367,-0.061 0.349,-0.043C0.332,-0.025 0.311,-0.012 0.286,-0.003C0.261,0.006 0.236,0.01 0.21,0.01C0.164,0.01 0.126,-0.001 0.096,-0.024C0.065,-0.047 0.05,-0.08 0.05,-0.125C0.05,-0.161 0.061,-0.191 0.084,-0.216C0.106,-0.24 0.14,-0.257 0.185,-0.266L0.374,-0.305L0.374,-0.234L0.24,-0.205C0.213,-0.2 0.192,-0.192 0.179,-0.181C0.165,-0.17 0.158,-0.155 0.158,-0.134C0.158,-0.114 0.165,-0.098 0.179,-0.087C0.193,-0.076 0.212,-0.07 0.237,-0.07C0.252,-0.07 0.267,-0.072 0.282,-0.077C0.297,-0.081 0.31,-0.088 0.322,-0.097C0.333,-0.106 0.343,-0.118 0.349,-0.133C0.357,-0.147 0.36,-0.164 0.36,-0.184L0.36,-0.322Z" style="fill:rgb(245,246,246);fill-rule:nonzero;"/>
                </g>
                <g transform="matrix(400,0,0,400,977.188,656.936)">
                    <path d="M0.158,-0.5L0.293,-0.284L0.318,-0.281L0.514,-0L0.387,-0L0.245,-0.224L0.217,-0.231L0.028,-0.5L0.158,-0.5ZM0.509,-0.5L0.322,-0.234L0.294,-0.235L0.143,-0L0.02,-0L0.223,-0.283L0.249,-0.281L0.386,-0.5L0.509,-0.5Z" style="fill:rgb(245,246,246);fill-rule:nonzero;"/>
                </g>
                <g transform="matrix(400,0,0,400,1183.19,656.936)">
                    <path d="M0.294,0.01C0.245,0.01 0.203,-0 0.166,-0.021C0.129,-0.042 0.101,-0.071 0.08,-0.111C0.059,-0.15 0.049,-0.196 0.049,-0.25C0.049,-0.305 0.059,-0.351 0.08,-0.39C0.1,-0.429 0.128,-0.458 0.165,-0.479C0.201,-0.5 0.242,-0.51 0.288,-0.51C0.335,-0.51 0.376,-0.5 0.409,-0.48C0.442,-0.46 0.468,-0.433 0.486,-0.398C0.503,-0.363 0.512,-0.322 0.512,-0.277C0.512,-0.266 0.512,-0.255 0.511,-0.246C0.51,-0.237 0.51,-0.229 0.509,-0.222L0.119,-0.222L0.119,-0.296L0.461,-0.296L0.408,-0.28C0.408,-0.311 0.403,-0.338 0.394,-0.36C0.384,-0.381 0.37,-0.398 0.352,-0.409C0.334,-0.42 0.313,-0.426 0.288,-0.426C0.26,-0.426 0.236,-0.419 0.216,-0.406C0.195,-0.392 0.18,-0.372 0.169,-0.345C0.158,-0.319 0.153,-0.287 0.153,-0.249C0.153,-0.211 0.159,-0.179 0.17,-0.153C0.181,-0.127 0.198,-0.107 0.219,-0.094C0.24,-0.081 0.265,-0.074 0.294,-0.074C0.325,-0.074 0.35,-0.081 0.37,-0.094C0.39,-0.107 0.406,-0.124 0.417,-0.147L0.503,-0.109C0.492,-0.084 0.476,-0.063 0.456,-0.045C0.435,-0.027 0.411,-0.013 0.384,-0.004C0.357,0.005 0.327,0.01 0.294,0.01Z" style="fill:rgb(28,171,212);fill-rule:nonzero;"/>
                </g>
                <g transform="matrix(400,0,0,400,1407.59,656.936)">
                    <path d="M0.081,-0L0.081,-0.5L0.176,-0.5L0.183,-0.364L0.169,-0.377C0.182,-0.422 0.204,-0.456 0.236,-0.477C0.268,-0.499 0.305,-0.51 0.348,-0.51C0.382,-0.51 0.412,-0.503 0.439,-0.49C0.466,-0.476 0.487,-0.455 0.503,-0.428C0.519,-0.401 0.527,-0.366 0.527,-0.325L0.527,-0L0.419,-0L0.419,-0.293C0.419,-0.34 0.409,-0.374 0.39,-0.393C0.37,-0.412 0.345,-0.422 0.316,-0.422C0.295,-0.422 0.275,-0.417 0.256,-0.406C0.236,-0.396 0.22,-0.38 0.207,-0.357C0.195,-0.334 0.189,-0.305 0.189,-0.268L0.189,-0L0.081,-0Z" style="fill:rgb(28,171,212);fill-rule:nonzero;"/>
                </g>
                <g transform="matrix(400,0,0,400,1645.59,656.936)">
                    <path d="M0.222,-0.648L0.222,-0.152C0.222,-0.127 0.228,-0.108 0.241,-0.096C0.254,-0.083 0.271,-0.077 0.292,-0.077C0.309,-0.077 0.324,-0.08 0.337,-0.086C0.349,-0.091 0.36,-0.099 0.37,-0.108L0.392,-0.032C0.377,-0.019 0.358,-0.008 0.337,-0.001C0.316,0.006 0.292,0.01 0.267,0.01C0.223,0.01 0.187,-0.001 0.158,-0.023C0.129,-0.045 0.114,-0.082 0.114,-0.134L0.114,-0.618L0.222,-0.648ZM0.384,-0.5L0.384,-0.416L0.023,-0.416L0.023,-0.5L0.384,-0.5Z" style="fill:rgb(28,171,212);fill-rule:nonzero;"/>
                </g>
                <g transform="matrix(140.31,0,0,140.31,1116.98,797.246)">
                    <path d="M0.291,-0.51C0.33,-0.51 0.364,-0.504 0.393,-0.492C0.421,-0.479 0.444,-0.463 0.463,-0.442C0.481,-0.421 0.494,-0.396 0.503,-0.369L0.402,-0.329C0.395,-0.361 0.382,-0.385 0.364,-0.402C0.345,-0.418 0.321,-0.426 0.291,-0.426C0.263,-0.426 0.239,-0.419 0.219,-0.406C0.199,-0.392 0.184,-0.372 0.173,-0.345C0.162,-0.319 0.157,-0.287 0.157,-0.249C0.157,-0.212 0.163,-0.18 0.173,-0.154C0.185,-0.127 0.2,-0.107 0.221,-0.094C0.241,-0.081 0.265,-0.074 0.292,-0.074C0.314,-0.074 0.333,-0.078 0.349,-0.086C0.365,-0.093 0.378,-0.104 0.388,-0.119C0.398,-0.134 0.405,-0.151 0.409,-0.172L0.507,-0.139C0.498,-0.109 0.485,-0.083 0.466,-0.061C0.447,-0.038 0.422,-0.021 0.393,-0.009C0.364,0.004 0.33,0.01 0.293,0.01C0.244,0.01 0.202,-0 0.165,-0.021C0.128,-0.042 0.1,-0.071 0.08,-0.111C0.059,-0.15 0.049,-0.196 0.049,-0.25C0.049,-0.304 0.059,-0.35 0.08,-0.39C0.101,-0.429 0.129,-0.458 0.166,-0.479C0.202,-0.5 0.244,-0.51 0.291,-0.51Z" style="fill:rgb(174,176,178);fill-rule:nonzero;"/>
                </g>
                <g transform="matrix(140.31,0,0,140.31,1193.73,797.246)">
                    <path d="M0.292,-0.51C0.339,-0.51 0.381,-0.5 0.418,-0.479C0.454,-0.458 0.483,-0.429 0.503,-0.39C0.525,-0.35 0.535,-0.304 0.535,-0.25C0.535,-0.196 0.525,-0.15 0.503,-0.111C0.483,-0.071 0.454,-0.042 0.418,-0.021C0.381,-0 0.339,0.01 0.292,0.01C0.245,0.01 0.203,-0 0.166,-0.021C0.129,-0.042 0.101,-0.071 0.08,-0.111C0.059,-0.15 0.049,-0.196 0.049,-0.25C0.049,-0.304 0.059,-0.35 0.08,-0.39C0.101,-0.429 0.129,-0.458 0.166,-0.479C0.203,-0.5 0.245,-0.51 0.292,-0.51ZM0.292,-0.426C0.264,-0.426 0.24,-0.419 0.22,-0.406C0.2,-0.392 0.185,-0.372 0.173,-0.346C0.163,-0.32 0.157,-0.288 0.157,-0.25C0.157,-0.212 0.163,-0.18 0.173,-0.154C0.185,-0.128 0.2,-0.108 0.22,-0.095C0.24,-0.081 0.264,-0.074 0.292,-0.074C0.32,-0.074 0.344,-0.081 0.364,-0.095C0.384,-0.108 0.4,-0.128 0.41,-0.155C0.422,-0.181 0.427,-0.213 0.427,-0.25C0.427,-0.288 0.422,-0.32 0.41,-0.346C0.4,-0.372 0.384,-0.392 0.364,-0.406C0.344,-0.419 0.32,-0.426 0.292,-0.426Z" style="fill:rgb(174,176,178);fill-rule:nonzero;"/>
                </g>
                <g transform="matrix(140.31,0,0,140.31,1275.67,797.246)">
                    <path d="M0.081,-0L0.081,-0.5L0.176,-0.5L0.183,-0.364L0.169,-0.377C0.182,-0.422 0.204,-0.456 0.236,-0.477C0.268,-0.499 0.305,-0.51 0.348,-0.51C0.382,-0.51 0.412,-0.503 0.439,-0.49C0.466,-0.476 0.487,-0.455 0.503,-0.428C0.519,-0.401 0.527,-0.366 0.527,-0.325L0.527,-0L0.419,-0L0.419,-0.293C0.419,-0.34 0.409,-0.374 0.39,-0.393C0.37,-0.412 0.345,-0.422 0.316,-0.422C0.295,-0.422 0.275,-0.417 0.256,-0.406C0.236,-0.396 0.22,-0.38 0.207,-0.357C0.195,-0.334 0.189,-0.305 0.189,-0.268L0.189,-0L0.081,-0Z" style="fill:rgb(174,176,178);fill-rule:nonzero;"/>
                </g>
                <g transform="matrix(140.31,0,0,140.31,1360.14,797.246)">
                    <path d="M0.262,0.01C0.214,0.01 0.17,0 0.131,-0.019C0.091,-0.038 0.059,-0.065 0.036,-0.1L0.103,-0.163C0.118,-0.134 0.139,-0.112 0.167,-0.096C0.194,-0.08 0.226,-0.072 0.263,-0.072C0.292,-0.072 0.315,-0.078 0.333,-0.089C0.351,-0.1 0.36,-0.116 0.36,-0.136C0.36,-0.149 0.356,-0.161 0.347,-0.171C0.339,-0.18 0.323,-0.188 0.299,-0.193L0.204,-0.214C0.151,-0.226 0.114,-0.244 0.092,-0.267C0.069,-0.29 0.058,-0.32 0.058,-0.356C0.058,-0.383 0.066,-0.408 0.082,-0.432C0.097,-0.455 0.12,-0.473 0.151,-0.488C0.181,-0.503 0.218,-0.51 0.261,-0.51C0.309,-0.51 0.35,-0.501 0.385,-0.483C0.419,-0.465 0.445,-0.44 0.463,-0.407L0.396,-0.348C0.384,-0.375 0.366,-0.396 0.341,-0.408C0.316,-0.422 0.29,-0.428 0.264,-0.428C0.243,-0.428 0.226,-0.425 0.211,-0.42C0.196,-0.415 0.184,-0.407 0.177,-0.397C0.169,-0.387 0.165,-0.376 0.165,-0.363C0.165,-0.35 0.17,-0.338 0.18,-0.327C0.19,-0.316 0.207,-0.308 0.232,-0.303L0.339,-0.28C0.386,-0.27 0.419,-0.254 0.439,-0.232C0.458,-0.21 0.468,-0.183 0.468,-0.15C0.468,-0.103 0.45,-0.064 0.413,-0.035C0.377,-0.005 0.327,0.01 0.262,0.01Z" style="fill:rgb(174,176,178);fill-rule:nonzero;"/>
                </g>
                <g transform="matrix(140.31,0,0,140.31,1431.98,797.246)">
                    <path d="M0.25,0.01C0.217,0.01 0.188,0.004 0.162,-0.008C0.136,-0.02 0.115,-0.039 0.1,-0.066C0.084,-0.093 0.076,-0.127 0.076,-0.169L0.076,-0.5L0.184,-0.5L0.184,-0.196C0.184,-0.156 0.192,-0.126 0.209,-0.107C0.225,-0.088 0.251,-0.078 0.287,-0.078C0.304,-0.078 0.319,-0.081 0.334,-0.087C0.349,-0.093 0.362,-0.102 0.374,-0.115C0.385,-0.127 0.394,-0.142 0.401,-0.162C0.408,-0.181 0.411,-0.202 0.411,-0.227L0.411,-0.5L0.519,-0.5L0.519,-0L0.423,-0L0.419,-0.087C0.408,-0.066 0.395,-0.048 0.379,-0.033C0.362,-0.018 0.343,-0.008 0.322,-0.001C0.301,0.006 0.277,0.01 0.25,0.01Z" style="fill:rgb(174,176,178);fill-rule:nonzero;"/>
                </g>
                <g transform="matrix(140.31,0,0,140.31,1516.02,797.246)">
                    <path d="M0.185,-0.723L0.185,-0.142C0.185,-0.119 0.189,-0.102 0.196,-0.091C0.203,-0.08 0.216,-0.074 0.235,-0.074C0.246,-0.074 0.255,-0.075 0.262,-0.077C0.269,-0.078 0.278,-0.081 0.289,-0.085L0.278,-0.008C0.269,-0.003 0.257,0.002 0.242,0.005C0.227,0.008 0.212,0.01 0.199,0.01C0.152,0.01 0.12,-0.003 0.103,-0.029C0.086,-0.054 0.077,-0.089 0.077,-0.132L0.077,-0.723L0.185,-0.723Z" style="fill:rgb(174,176,178);fill-rule:nonzero;"/>
                </g>
                <g transform="matrix(140.31,0,0,140.31,1554.61,797.246)">
                    <path d="M0.222,-0.648L0.222,-0.152C0.222,-0.127 0.228,-0.108 0.241,-0.096C0.254,-0.083 0.271,-0.077 0.292,-0.077C0.309,-0.077 0.324,-0.08 0.337,-0.086C0.349,-0.091 0.36,-0.099 0.37,-0.108L0.392,-0.032C0.377,-0.019 0.358,-0.008 0.337,-0.001C0.316,0.006 0.292,0.01 0.267,0.01C0.223,0.01 0.187,-0.001 0.158,-0.023C0.129,-0.045 0.114,-0.082 0.114,-0.134L0.114,-0.618L0.222,-0.648ZM0.384,-0.5L0.384,-0.416L0.023,-0.416L0.023,-0.5L0.384,-0.5Z" style="fill:rgb(174,176,178);fill-rule:nonzero;"/>
                </g>
                <g transform="matrix(140.31,0,0,140.31,1611.44,797.246)">
                    <path d="M0.189,-0.5L0.189,-0L0.081,-0L0.081,-0.5L0.189,-0.5ZM0.138,-0.582C0.114,-0.582 0.096,-0.588 0.083,-0.6C0.07,-0.611 0.063,-0.628 0.063,-0.65C0.063,-0.672 0.07,-0.689 0.083,-0.701C0.096,-0.712 0.114,-0.718 0.138,-0.718C0.162,-0.718 0.18,-0.712 0.193,-0.701C0.206,-0.689 0.212,-0.672 0.212,-0.65C0.212,-0.628 0.206,-0.611 0.193,-0.6C0.18,-0.588 0.162,-0.582 0.138,-0.582Z" style="fill:rgb(174,176,178);fill-rule:nonzero;"/>
                </g>
                <g transform="matrix(140.31,0,0,140.31,1649.18,797.246)">
                    <path d="M0.081,-0L0.081,-0.5L0.176,-0.5L0.183,-0.364L0.169,-0.377C0.182,-0.422 0.204,-0.456 0.236,-0.477C0.268,-0.499 0.305,-0.51 0.348,-0.51C0.382,-0.51 0.412,-0.503 0.439,-0.49C0.466,-0.476 0.487,-0.455 0.503,-0.428C0.519,-0.401 0.527,-0.366 0.527,-0.325L0.527,-0L0.419,-0L0.419,-0.293C0.419,-0.34 0.409,-0.374 0.39,-0.393C0.37,-0.412 0.345,-0.422 0.316,-0.422C0.295,-0.422 0.275,-0.417 0.256,-0.406C0.236,-0.396 0.22,-0.38 0.207,-0.357C0.195,-0.334 0.189,-0.305 0.189,-0.268L0.189,-0L0.081,-0Z" style="fill:rgb(174,176,178);fill-rule:nonzero;"/>
                </g>
                <g transform="matrix(140.31,0,0,140.31,1733.64,797.246)">
                    <path d="M0.511,-0.607L0.526,-0.525C0.524,-0.526 0.522,-0.526 0.52,-0.526L0.513,-0.526C0.482,-0.526 0.459,-0.519 0.443,-0.505C0.427,-0.491 0.419,-0.471 0.419,-0.444L0.37,-0.467C0.37,-0.494 0.376,-0.518 0.387,-0.539C0.398,-0.56 0.413,-0.577 0.432,-0.59C0.451,-0.602 0.475,-0.608 0.502,-0.608L0.506,-0.608C0.508,-0.608 0.51,-0.608 0.511,-0.607ZM0.354,-0.079C0.404,-0.079 0.443,-0.068 0.471,-0.045C0.499,-0.022 0.513,0.009 0.513,0.048C0.513,0.083 0.502,0.113 0.481,0.138C0.46,0.163 0.431,0.182 0.394,0.195C0.357,0.208 0.314,0.215 0.266,0.215C0.185,0.215 0.126,0.202 0.087,0.177C0.049,0.152 0.03,0.121 0.03,0.083C0.03,0.056 0.04,0.032 0.059,0.012C0.079,-0.007 0.111,-0.018 0.155,-0.021L0.15,-0.006C0.121,-0.012 0.099,-0.023 0.082,-0.04C0.065,-0.056 0.056,-0.078 0.056,-0.106C0.056,-0.133 0.067,-0.157 0.088,-0.178C0.109,-0.198 0.14,-0.21 0.179,-0.213L0.235,-0.187L0.221,-0.187C0.192,-0.185 0.172,-0.179 0.159,-0.168C0.146,-0.157 0.139,-0.144 0.139,-0.129C0.139,-0.112 0.145,-0.1 0.157,-0.092C0.169,-0.083 0.186,-0.079 0.208,-0.079L0.354,-0.079ZM0.267,0.137C0.302,0.137 0.331,0.134 0.354,0.127C0.377,0.12 0.395,0.111 0.406,0.099C0.418,0.088 0.424,0.075 0.424,0.062C0.424,0.045 0.418,0.032 0.405,0.023C0.392,0.014 0.371,0.009 0.342,0.009L0.185,0.009C0.166,0.009 0.151,0.014 0.138,0.024C0.125,0.034 0.118,0.048 0.118,0.065C0.118,0.086 0.131,0.104 0.158,0.117C0.184,0.13 0.22,0.137 0.267,0.137ZM0.264,-0.51C0.307,-0.51 0.345,-0.503 0.377,-0.489C0.408,-0.475 0.433,-0.456 0.45,-0.431C0.467,-0.406 0.476,-0.376 0.476,-0.342C0.476,-0.308 0.467,-0.278 0.45,-0.253C0.432,-0.228 0.407,-0.208 0.376,-0.195C0.344,-0.181 0.307,-0.174 0.264,-0.174C0.195,-0.174 0.143,-0.189 0.107,-0.22C0.07,-0.25 0.052,-0.291 0.052,-0.342C0.052,-0.376 0.061,-0.406 0.078,-0.431C0.095,-0.456 0.12,-0.475 0.152,-0.489C0.184,-0.503 0.221,-0.51 0.264,-0.51ZM0.264,-0.438C0.234,-0.438 0.209,-0.429 0.189,-0.412C0.169,-0.395 0.159,-0.371 0.159,-0.342C0.159,-0.313 0.169,-0.289 0.19,-0.272C0.21,-0.255 0.235,-0.246 0.264,-0.246C0.294,-0.246 0.319,-0.255 0.339,-0.272C0.359,-0.289 0.369,-0.313 0.369,-0.342C0.369,-0.371 0.359,-0.395 0.34,-0.412C0.32,-0.429 0.295,-0.438 0.264,-0.438Z" style="fill:rgb(174,176,178);fill-rule:nonzero;"/>
                </g>
            </g>
        </g>
    </g>
</svg>
