<?xml version="1.0" encoding="UTF-8" standalone="no"?>
<!DOCTYPE svg PUBLIC "-//W3C//DTD SVG 1.1//EN" "http://www.w3.org/Graphics/SVG/1.1/DTD/svg11.dtd">
<svg width="100%" height="100%" viewBox="0 0 731 570" version="1.1" xmlns="http://www.w3.org/2000/svg" xmlns:xlink="http://www.w3.org/1999/xlink" xml:space="preserve" xmlns:serif="http://www.serif.com/" style="fill-rule:evenodd;clip-rule:evenodd;stroke-linejoin:round;stroke-miterlimit:2;">
    <g id="Logo">
        <path id="Mountain-and-road" serif:id="Mountain and road" d="M337.075,179.342L336.542,179.342L318.625,224.437L237.583,422.517C249.071,445.767 267.033,482.317 274.283,498.062C275.837,501.442 277.863,506.129 279.8,511.433L279.8,511.429C279.804,511.429 313.821,511.129 346.383,514.408C378.946,517.692 386.717,521.512 370.779,525.796L370.783,525.796C289.071,547.008 285.412,558.358 321.812,565.929C359.062,573.683 432.592,567.479 432.592,567.479C417.6,567.192 273.292,560.654 351.067,544.204C399.837,533.887 417.15,526.133 416.371,520.317C416.371,520.312 416.367,520.192 416.308,519.983C416.304,519.95 416.296,519.921 416.283,519.892C416.254,519.792 416.212,519.671 416.154,519.533C416.133,519.492 416.117,519.446 416.096,519.4C414.233,515.358 399.658,499.221 285.8,495.908L324.5,395.783L332.192,411.379L363.671,329.921L363.671,329.925L365.3,325.712L366.921,329.925L366.921,329.921L445.146,532.317C447.092,519.375 452.862,505.462 456.317,497.958C463.558,482.221 481.5,445.712 492.987,422.458L450.875,319.521L411.95,224.383L394.05,179.342L393.521,179.342L365.3,110.362L337.075,179.342Z" style="fill:url(#_Linear1);fill-rule:nonzero;"/>
        <g id="Ski-L" serif:id="Ski L">
            <path d="M25.996,0.533C25.775,0.571 21.171,1.375 17.979,3.454C8.225,10.279 -9.546,28.783 7.483,66.371C30.054,116.179 100.192,262.129 117.583,304.675C125.562,325.562 155.687,394.004 166.596,427.262C166.596,427.262 191.496,503.708 200.433,528.608C209.367,553.504 220.579,568.787 228.912,569.933L252.433,560.321L252.467,560.321L275.896,550.487C280.971,543.787 278.096,525.054 266.808,501.129C255.525,477.2 219.075,405.537 219.075,405.537C203.267,374.308 176.179,304.617 167.046,284.204C149.263,241.821 95.654,89.021 76.396,37.842C64.462,6.146 45.042,0.112 31.979,0.112C29.783,0.112 27.767,0.283 25.996,0.533Z" style="fill:url(#_Linear2);fill-rule:nonzero;"/>
            <path d="M208.09,526.715C199.277,502.16 174.54,426.252 174.294,425.49C166.982,403.19 151.498,366.16 139.057,336.406C133.048,322.04 127.861,309.627 125.215,302.702C114.073,275.444 81.99,207.231 53.686,147.048C38.015,113.727 23.211,82.256 15.011,64.16C-0.331,30.294 14.036,13.502 24.023,6.485C25.648,5.444 27.998,4.756 29.448,4.419C28.507,4.477 27.582,4.569 26.698,4.69C25.619,4.873 22.39,5.64 20.332,6.952C10.348,13.969 -4.018,30.765 11.323,64.627C19.523,82.727 34.323,114.198 49.994,147.519C78.302,207.702 110.382,275.915 121.527,303.173C124.169,310.098 129.361,322.51 135.369,336.877C147.807,366.631 163.29,403.656 170.602,425.96C170.852,426.723 195.586,502.627 204.398,527.185C213.54,552.644 223.448,563.731 228.557,565.523C228.557,565.523 219.177,559.11 208.09,526.715" style="fill:url(#_Linear3);fill-rule:nonzero;"/>
        </g>
        <g id="Ski-R" serif:id="Ski R">
            <path d="M654.204,37.733C634.942,88.917 581.337,241.717 563.55,284.1C554.417,304.504 527.329,374.204 511.521,405.433C511.521,405.433 475.071,477.096 463.787,501.025C452.5,524.946 449.621,543.679 454.704,550.383L478.129,560.217L478.167,560.217L501.687,569.829C510.021,568.683 521.229,553.4 530.162,528.504C539.104,503.604 564.004,427.158 564.004,427.158C574.908,393.9 605.037,325.458 613.008,304.571C630.404,262.021 700.546,116.071 723.117,66.267C740.142,28.679 722.375,10.175 712.621,3.346C709.421,1.271 704.821,0.462 704.604,0.425C702.829,0.179 700.817,0.008 698.617,0.008C685.558,0.008 666.133,6.042 654.204,37.733Z" style="fill:url(#_Linear4);fill-rule:nonzero;"/>
            <path d="M522.507,526.609C531.319,502.055 556.057,426.147 556.302,425.384C563.615,403.084 579.098,366.055 591.54,336.301C597.548,321.934 602.736,309.522 605.382,302.597C616.523,275.338 648.607,207.126 676.911,146.942C692.582,113.622 707.386,82.151 715.586,64.055C730.927,30.188 716.561,13.397 706.573,6.38C704.948,5.338 702.598,4.651 701.148,4.313C702.09,4.372 703.015,4.463 703.898,4.584C704.977,4.772 708.207,5.534 710.265,6.847C720.248,13.863 734.615,30.659 719.273,64.526C711.073,82.622 696.273,114.092 680.602,147.413C652.294,207.597 620.215,275.809 609.069,303.067C606.427,309.992 601.236,322.405 595.227,336.772C582.79,366.526 567.307,403.551 559.994,425.855C559.744,426.617 535.011,502.522 526.198,527.08C517.057,552.538 507.148,563.626 502.04,565.417C502.04,565.417 511.419,559.005 522.507,526.609" style="fill:url(#_Linear5);fill-rule:nonzero;"/>
        </g>
    </g>
    <defs>
        <linearGradient id="_Linear1" x1="0" y1="0" x2="1" y2="0" gradientUnits="userSpaceOnUse" gradientTransform="matrix(-0.0136646,565.41,-441.545,-0.010671,365.299,4.41875)"><stop offset="0" style="stop-color:rgb(6,173,121);stop-opacity:1"/><stop offset="0.55" style="stop-color:rgb(5,157,110);stop-opacity:1"/><stop offset="1" style="stop-color:rgb(5,150,105);stop-opacity:1"/></linearGradient>
        <linearGradient id="_Linear2" x1="0" y1="0" x2="1" y2="0" gradientUnits="userSpaceOnUse" gradientTransform="matrix(-0.0136646,565.41,-441.545,-0.010671,365.299,4.41875)"><stop offset="0" style="stop-color:rgb(6,173,121);stop-opacity:1"/><stop offset="0.55" style="stop-color:rgb(5,157,110);stop-opacity:1"/><stop offset="1" style="stop-color:rgb(5,150,105);stop-opacity:1"/></linearGradient>
        <linearGradient id="_Linear3" x1="0" y1="0" x2="1" y2="0" gradientUnits="userSpaceOnUse" gradientTransform="matrix(729.804,0,0,569.925,559.487,434.198)"><stop offset="0" style="stop-color:rgb(6,173,121);stop-opacity:1"/><stop offset="0.55" style="stop-color:rgb(5,157,110);stop-opacity:1"/><stop offset="1" style="stop-color:rgb(5,150,105);stop-opacity:1"/></linearGradient>
        <linearGradient id="_Linear4" x1="0" y1="0" x2="1" y2="0" gradientUnits="userSpaceOnUse" gradientTransform="matrix(-0.0136646,565.41,-441.545,-0.010671,365.299,4.41875)"><stop offset="0" style="stop-color:rgb(6,173,121);stop-opacity:1"/><stop offset="0.55" style="stop-color:rgb(5,157,110);stop-opacity:1"/><stop offset="1" style="stop-color:rgb(5,150,105);stop-opacity:1"/></linearGradient>
        <linearGradient id="_Linear5" x1="0" y1="0" x2="1" y2="0" gradientUnits="userSpaceOnUse" gradientTransform="matrix(729.804,0,0,569.925,873.904,434.092)"><stop offset="0" style="stop-color:rgb(6,173,121);stop-opacity:1"/><stop offset="0.55" style="stop-color:rgb(5,157,110);stop-opacity:1"/><stop offset="1" style="stop-color:rgb(5,150,105);stop-opacity:1"/></linearGradient>
    </defs>
</svg>
